<?xml version="1.0" encoding="UTF-8"?><svg xmlns="http://www.w3.org/2000/svg" viewBox="0 0 98.38 161.6"><defs><style>.d{fill:#fa6e76;}</style></defs><g id="a"/><g id="b"><g id="c"><path class="d" d="M98.28,91.07c-.11-12.03-3.62-23.16-9.92-33.43-3.98-6.47-9.27-11.8-14.66-17.04-.62-.62-1.38-1.1-2.07-1.64,.47-.49,.53-.6,.61-.69,4.66-4.87,3.81-10.91-1.93-14.36-.47-.28-.83-1.11-.84-1.68-.07-4.45-.01-8.9-.04-13.35C69.38,3.72,65.69,.05,60.51,.02,52.98,0,45.46,0,37.93,.02c-5.26,.03-8.92,3.72-8.96,9.01-.02,4.32-.04,8.65,.03,12.97,.01,1.1-.3,1.68-1.3,2.22-3.73,2.02-5.46,6.23-4.05,10.14,.56,1.58,1.7,2.96,2.81,4.84-2.59,2.48-5.53,5.07-8.19,7.9C6.57,59.54,.35,74.33,.13,91.38c-.24,18.57-.09,37.14-.04,55.7,.01,8.11,6.31,14.46,14.41,14.48,23.12,.05,46.24,.05,69.35,0,8.13-.02,14.44-6.32,14.47-14.43,.05-18.69,.12-37.38-.04-56.06ZM32.58,28.87c11.08-.01,22.16-.01,33.24,0,2.28,0,3.6,1.08,3.6,2.88s-1.33,2.88-3.6,2.88c-5.6,.01-11.2,.01-16.8,.01s-10.96,0-16.43-.01c-2.28,0-3.61-1.08-3.61-2.88s1.32-2.88,3.6-2.88ZM14.03,84.86c.02-.42,.05-.85,.09-1.27,.76-8.7,4.86-17.54,10.35-23.76,.44-.5,.89-.98,1.35-1.44,.58-.59,1.09-1.1,1.57-1.58,.26-.26,.52-.52,.78-.78,.54-.54,1.09-1.09,1.76-1.74,0,0,.02-.02,.03-.02,1.48-1.44,3.5-1.61,4.86-.14l.06,.06c.25,.28,.49,.56,.71,.84,4.66,5.71,7.36,12.2,8.14,19.44,.11,1.03,.18,2.09,.21,3.16,.04,1.47-.56,2.3-1.94,2.77-8.25,2.8-16.49,5.65-24.73,8.45-2.3,.78-3.31-.25-3.24-3.99Zm72.74,55.8c-.01,5.84-3.58,9.37-9.49,9.38-9.39,.01-18.78,0-28.17,0s-18.54,.01-27.81,0c-6.15,0-9.67-3.48-9.67-9.56,0-9.08,0-18.15,0-27.22,0-5.77,3.58-9.37,9.31-9.38,18.84-.01,37.68-.01,56.52,0,5.74,.01,9.31,3.6,9.31,9.38,.01,9.13,.01,18.26,0,27.4Z"/></g></g></svg>